<?xml version="1.0" encoding="UTF-8" standalone="no"?>
<!-- Created by Flowgorithm 4.5.0 (http://flowgorithm.org) -->

<svg xmlns:svg="http://www.w3.org/2000/svg" xmlns="http://www.w3.org/2000/svg" version="1.1" width="2294" height="2232">
	<rect x="0" y="0" width="2294" height="2232" fill="#FFFFFF"/>
	<g>
		<polyline fill="none" stroke="#404040" stroke-width="8" stroke-dasharray="none" points="1550,155 1550,230"/>
		<polygon fill="#404040" stroke="none" points="1550,248 1567,217 1532,217"/>
		<polyline fill="none" stroke="#404040" stroke-width="8" stroke-dasharray="none" points="1550,1984 1550,2059"/>
		<polygon fill="#404040" stroke="none" points="1550,2077 1567,2046 1532,2046"/>
		<g>
			<path fill="#F0E0FF" stroke="#9070A0" stroke-width="4" stroke-dasharray="none" d="M 1426,31 A 62 62, 0, 0 0, 1426 155 L 1674,155 A 62 62, 0, 0 0, 1674 31 Z"/>
			<text x="1550" y="49" fill="#301040" font-family="Arial" font-size="32pt" text-anchor="middle" direction="ltr">
				<tspan x="1550" dy="62" unicode-bidi="embed">Main</tspan>
			</text>
		</g>
		<g>
			<path fill="#F0E0FF" stroke="#9070A0" stroke-width="4" stroke-dasharray="none" d="M 1426,2077 A 62 62, 0, 0 0, 1426 2201 L 1674,2201 A 62 62, 0, 0 0, 1674 2077 Z"/>
			<text x="1550" y="2095" fill="#301040" font-family="Arial" font-size="32pt" text-anchor="middle" direction="ltr">
				<tspan x="1550" dy="62" unicode-bidi="embed">End</tspan>
			</text>
		</g>
		<g>
			<polyline fill="none" stroke="#404040" stroke-width="8" stroke-dasharray="none" points="1550,403 1550,478"/>
			<polygon fill="#404040" stroke="none" points="1550,496 1567,465 1532,465"/>
			<polyline fill="none" stroke="#404040" stroke-width="8" stroke-dasharray="none" points="1550,620 1550,695"/>
			<polygon fill="#404040" stroke="none" points="1550,713 1567,682 1532,682"/>
			<polyline fill="none" stroke="#404040" stroke-width="8" stroke-dasharray="none" points="1550,837 1550,912"/>
			<polygon fill="#404040" stroke="none" points="1550,930 1567,899 1532,899"/>
			<g>
				<path fill="#FFFFD8" stroke="#A0A078" stroke-width="4" stroke-dasharray="none" d="M 1364,248 L 1364,403 L 1736,403 L 1736,248 Z"/>
				<polyline fill="none" stroke="#A0A078" stroke-width="4" stroke-dasharray="none" points="1364,279 1736,279"/>
				<polyline fill="none" stroke="#A0A078" stroke-width="4" stroke-dasharray="none" points="1395,248 1395,403"/>
				<text x="1565" y="297" fill="#404018" font-family="Arial" font-size="32pt" text-anchor="middle" direction="ltr">
					<tspan x="1565" dy="62" unicode-bidi="embed">Entero peso</tspan>
				</text>
			</g>
			<g>
				<path fill="#D8FFD8" stroke="#78A078" stroke-width="4" stroke-dasharray="none" d="M 1240,496 L 1178,620 L 1860,620 L 1922,496 Z"/>
				<text x="1550" y="514" fill="#184018" font-family="Arial" font-size="32pt" text-anchor="middle" direction="ltr">
					<tspan x="1550" dy="62" unicode-bidi="embed">Output &quot;Digite el peso:&quot;</tspan>
				</text>
			</g>
			<g>
				<path fill="#D0E8FF" stroke="#7088A0" stroke-width="4" stroke-dasharray="none" d="M 1395,713 L 1333,837 L 1705,837 L 1767,713 Z"/>
				<text x="1550" y="731" fill="#102840" font-family="Arial" font-size="32pt" text-anchor="middle" direction="ltr">
					<tspan x="1550" dy="62" unicode-bidi="embed">Input peso</tspan>
				</text>
			</g>
			<g>
				<polyline fill="none" stroke="#404040" stroke-width="8" stroke-dasharray="none" points="1736,1054 1953,1054 1953,1222"/>
				<polygon fill="#404040" stroke="none" points="1953,1240 1970,1209 1935,1209"/>
				<polyline fill="none" stroke="#404040" stroke-width="8" stroke-dasharray="none" points="1953,1364 1953,1953 1598,1953"/>
				<polygon fill="#404040" stroke="none" points="1581,1953 1611,1970 1611,1935"/>
				<polyline fill="none" stroke="#404040" stroke-width="8" stroke-dasharray="none" points="1364,1054 775,1054 775,1222"/>
				<polygon fill="#404040" stroke="none" points="775,1240 792,1209 757,1209"/>
				<polyline fill="none" stroke="#404040" stroke-width="8" stroke-dasharray="none" points="775,1829 775,1953 1501,1953"/>
				<polygon fill="#404040" stroke="none" points="1519,1953 1488,1935 1488,1970"/>
				<g>
					<path fill="#FFD8D8" stroke="#A07878" stroke-width="4" stroke-dasharray="none" d="M 1550,930 L 1333,1054 L 1550,1178 L 1767,1054 Z"/>
					<text x="1550" y="1010" fill="#401818" font-family="Arial" font-size="32pt" text-anchor="middle" direction="ltr">
						<tspan x="1550" dy="62" unicode-bidi="embed">peso &lt; 50</tspan>
					</text>
				</g>
				<g>
					<path fill="#D8FFD8" stroke="#78A078" stroke-width="4" stroke-dasharray="none" d="M 1705,1240 L 1643,1364 L 2201,1364 L 2263,1240 Z"/>
					<text x="1953" y="1258" fill="#184018" font-family="Arial" font-size="32pt" text-anchor="middle" direction="ltr">
						<tspan x="1953" dy="62" unicode-bidi="embed">Output &quot;Peque&#241;o&quot;</tspan>
					</text>
				</g>
				<g>
					<polyline fill="none" stroke="#404040" stroke-width="8" stroke-dasharray="none" points="961,1364 1178,1364 1178,1532"/>
					<polygon fill="#404040" stroke="none" points="1178,1550 1195,1519 1160,1519"/>
					<polyline fill="none" stroke="#404040" stroke-width="8" stroke-dasharray="none" points="1178,1674 1178,1798 823,1798"/>
					<polygon fill="#404040" stroke="none" points="806,1798 836,1815 836,1780"/>
					<polyline fill="none" stroke="#404040" stroke-width="8" stroke-dasharray="none" points="589,1364 372,1364 372,1532"/>
					<polygon fill="#404040" stroke="none" points="372,1550 389,1519 354,1519"/>
					<polyline fill="none" stroke="#404040" stroke-width="8" stroke-dasharray="none" points="372,1674 372,1798 726,1798"/>
					<polygon fill="#404040" stroke="none" points="744,1798 713,1780 713,1815"/>
					<g>
						<path fill="#FFD8D8" stroke="#A07878" stroke-width="4" stroke-dasharray="none" d="M 775,1240 L 558,1364 L 775,1488 L 992,1364 Z"/>
						<text x="775" y="1320" fill="#401818" font-family="Arial" font-size="32pt" text-anchor="middle" direction="ltr">
							<tspan x="775" dy="62" unicode-bidi="embed">peso &lt; 70</tspan>
						</text>
					</g>
					<g>
						<path fill="#D8FFD8" stroke="#78A078" stroke-width="4" stroke-dasharray="none" d="M 930,1550 L 868,1674 L 1426,1674 L 1488,1550 Z"/>
						<text x="1178" y="1568" fill="#184018" font-family="Arial" font-size="32pt" text-anchor="middle" direction="ltr">
							<tspan x="1178" dy="62" unicode-bidi="embed">Output &quot;Mediano&quot;</tspan>
						</text>
					</g>
					<g>
						<path fill="#D8FFD8" stroke="#78A078" stroke-width="4" stroke-dasharray="none" d="M 155,1550 L 93,1674 L 589,1674 L 651,1550 Z"/>
						<text x="372" y="1568" fill="#184018" font-family="Arial" font-size="32pt" text-anchor="middle" direction="ltr">
							<tspan x="372" dy="62" unicode-bidi="embed">Output &quot;Grande&quot;</tspan>
						</text>
					</g>
					<ellipse cx="775" cy="1798" rx="31" ry="31" fill="#FFD8D8" stroke="#A07878" stroke-width="4"/>
					<text x="1085" y="1258" fill="#404040" font-family="Arial" font-size="32pt" text-anchor="middle" direction="ltr">
						<tspan x="1085" dy="62" unicode-bidi="embed">True</tspan>
					</text>
					<text x="465" y="1258" fill="#404040" font-family="Arial" font-size="32pt" text-anchor="middle" direction="ltr">
						<tspan x="465" dy="62" unicode-bidi="embed">False</tspan>
					</text>
				</g>
				<ellipse cx="1550" cy="1953" rx="31" ry="31" fill="#FFD8D8" stroke="#A07878" stroke-width="4"/>
				<text x="1860" y="948" fill="#404040" font-family="Arial" font-size="32pt" text-anchor="middle" direction="ltr">
					<tspan x="1860" dy="62" unicode-bidi="embed">True</tspan>
				</text>
				<text x="1240" y="948" fill="#404040" font-family="Arial" font-size="32pt" text-anchor="middle" direction="ltr">
					<tspan x="1240" dy="62" unicode-bidi="embed">False</tspan>
				</text>
			</g>
		</g>
	</g>
</svg>
